<svg xmlns="http://www.w3.org/2000/svg" viewBox="0 0 32 32" fill="none">
  <defs>
    <linearGradient id="bg" x1="6" y1="4" x2="26" y2="28" gradientUnits="userSpaceOnUse">
      <stop stop-color="#0c4a6e"/>
      <stop offset="1" stop-color="#0369a1"/>
    </linearGradient>
    <linearGradient id="gold" x1="8" y1="8" x2="24" y2="22" gradientUnits="userSpaceOnUse">
      <stop stop-color="#fde68a"/>
      <stop offset="0.5" stop-color="#fbbf24"/>
      <stop offset="1" stop-color="#b45309"/>
    </linearGradient>
    <linearGradient id="band" x1="7" y1="20" x2="25" y2="23" gradientUnits="userSpaceOnUse">
      <stop stop-color="#ffffff"/>
      <stop offset="1" stop-color="#dbeafe"/>
    </linearGradient>
    <radialGradient id="jewel" cx="16" cy="12" r="2.2" gradientUnits="userSpaceOnUse">
      <stop stop-color="#ffffff"/>
      <stop offset="1" stop-color="#7dd3fc"/>
    </radialGradient>
  </defs>

  <rect width="32" height="32" rx="7" fill="url(#bg)"/>
  <ellipse cx="16" cy="15" rx="9" ry="7" fill="#fbbf24" opacity="0.08"/>

  <path d="M8.2 19.8L10 12.8C10 12.8 11.2 15.8 12.8 16.8L16 9.2L19.2 16.8C20.8 15.8 22 12.8 22 12.8L23.8 19.8H8.2Z" fill="url(#gold)"/>
  <path d="M7.2 19.8H24.8C25.3 19.8 25.8 20.2 25.8 20.7V22.2C25.8 22.7 25.3 23.2 24.8 23.2H7.2C6.7 23.2 6.2 22.7 6.2 22.2V20.7C6.2 20.2 6.7 19.8 7.2 19.8Z" fill="url(#gold)"/>
  <path d="M7.8 20.5H24.2C24.5 20.5 24.8 20.8 24.8 21.1V21.4C24.8 21.7 24.5 22 24.2 22H7.8C7.5 22 7.2 21.7 7.2 21.4V21.1C7.2 20.8 7.5 20.5 7.8 20.5Z" fill="url(#band)"/>

  <circle cx="10" cy="12.8" r="0.85" fill="url(#jewel)" stroke="#fbbf24" stroke-width="0.35"/>
  <circle cx="16" cy="9.2" r="1" fill="url(#jewel)" stroke="#fbbf24" stroke-width="0.4"/>
  <circle cx="22" cy="12.8" r="0.85" fill="url(#jewel)" stroke="#fbbf24" stroke-width="0.35"/>
  <path d="M16 14.8L17.2 17H14.8L16 14.8Z" fill="url(#jewel)" stroke="#d97706" stroke-width="0.35" stroke-linejoin="round"/>
</svg>
